# Blender 3.3.1
# www.blender.org
mtllib farmland.mtl
o Farmland
v -0.450000 0.000000 0.450000
v -0.450000 0.000000 -0.450000
v 0.450000 0.000000 0.450000
v 0.450000 0.000000 -0.450000
v -0.402688 0.050000 0.402688
v -0.450000 0.002688 0.450000
v -0.436143 0.036143 0.436143
v -0.402688 0.050000 -0.402688
v -0.450000 0.002688 -0.450000
v -0.436143 0.036143 -0.436143
v 0.402688 0.050000 0.402688
v 0.450000 0.002688 0.450000
v 0.436143 0.036143 0.436143
v 0.402688 0.050000 -0.402688
v 0.450000 0.002688 -0.450000
v 0.436143 0.036143 -0.436143
vn -0.0000 1.0000 -0.0000
vn 1.0000 -0.0000 -0.0000
vn -1.0000 -0.0000 -0.0000
vn -0.0000 -1.0000 -0.0000
vn -0.0000 -0.0000 -1.0000
vn -0.3827 0.9239 -0.0000
vn -0.9239 0.3827 -0.0000
vn -0.0000 0.9239 -0.3827
vn -0.0000 0.3827 -0.9239
vn 0.3827 0.9239 -0.0000
vn 0.9239 0.3827 -0.0000
vn -0.0000 0.9239 0.3827
vn -0.0000 0.3827 0.9239
vn -0.0000 -0.0000 1.0000
vt 0.375000 0.000000
vt 0.125000 0.750000
vt 0.375000 1.000000
vt 0.125000 0.500000
vt 0.375000 0.250000
vt 0.375000 0.750000
vt 0.375000 0.500000
vt 0.861858 0.736858
vt 0.388439 0.000000
vt 0.388439 1.000000
vt 0.875000 0.746151
vt 0.625000 0.003849
vt 0.871151 0.750000
vt 0.625000 0.996151
vt 0.861858 0.513142
vt 0.388439 0.250000
vt 0.875000 0.503849
vt 0.625000 0.246151
vt 0.871151 0.500000
vt 0.625000 0.253849
vt 0.638142 0.736858
vt 0.388439 0.750000
vt 0.625000 0.746151
vt 0.628849 0.750000
vt 0.625000 0.753849
vt 0.638142 0.513142
vt 0.388439 0.500000
vt 0.628849 0.500000
vt 0.625000 0.496151
vt 0.625000 0.503849
s 0
usemtl Farmland
f 14/26/1 8/15/1 5/8/1 11/21/1
f 4/7/2 15/27/2 12/22/2 3/6/2
f 1/1/3 6/9/3 9/16/3 2/5/3
f 2/4/4 4/7/4 3/6/4 1/2/4
f 2/5/5 9/16/5 15/27/5 4/7/5
f 5/8/6 8/15/6 10/17/6 7/11/6
f 7/12/7 10/18/7 9/16/7 6/9/7
f 8/15/8 14/26/8 16/28/8 10/19/8
f 10/20/9 16/29/9 15/27/9 9/16/9
f 14/26/10 11/21/10 13/23/10 16/30/10
f 16/30/11 13/23/11 12/22/11 15/27/11
f 11/21/12 5/8/12 7/13/12 13/24/12
f 13/25/13 7/14/13 6/10/13 12/22/13
f 3/6/14 12/22/14 6/10/14 1/3/14
