# Blender 3.3.1
# www.blender.org
mtllib bud.mtl
o Bud
v 0.167100 0.068439 0.180408
v 0.119592 0.068439 0.132900
v 0.139851 0.123476 0.207658
v 0.092342 0.123476 0.160150
v 0.132900 0.068439 0.119592
v 0.180408 0.068439 0.167100
v 0.160150 0.123476 0.092342
v 0.207658 0.123476 0.139850
v 0.162130 0.095958 0.202688
v 0.148310 0.058413 0.151690
v 0.097312 0.095958 0.137870
v 0.111132 0.133502 0.188868
v 0.137870 0.095958 0.097312
v 0.151690 0.058413 0.148310
v 0.202688 0.095958 0.162130
v 0.188868 0.133502 0.111132
v 0.129721 0.095958 0.170279
v 0.170279 0.095958 0.129721
v 0.180408 0.068439 -0.167100
v 0.132900 0.068439 -0.119592
v 0.207658 0.123476 -0.139850
v 0.160150 0.123476 -0.092342
v 0.119592 0.068439 -0.132900
v 0.167100 0.068439 -0.180408
v 0.092342 0.123476 -0.160150
v 0.139850 0.123476 -0.207658
v 0.202688 0.095958 -0.162130
v 0.151690 0.058413 -0.148310
v 0.137870 0.095958 -0.097312
v 0.188868 0.133502 -0.111132
v 0.097312 0.095958 -0.137870
v 0.148310 0.058413 -0.151690
v 0.162130 0.095958 -0.202688
v 0.111132 0.133502 -0.188868
v 0.170279 0.095958 -0.129721
v 0.129721 0.095958 -0.170279
v -0.167100 0.068439 -0.180408
v -0.119592 0.068439 -0.132900
v -0.139850 0.123476 -0.207658
v -0.092342 0.123476 -0.160150
v -0.132900 0.068439 -0.119592
v -0.180408 0.068439 -0.167100
v -0.160150 0.123476 -0.092342
v -0.207658 0.123476 -0.139850
v -0.162130 0.095958 -0.202688
v -0.148310 0.058413 -0.151690
v -0.097312 0.095958 -0.137870
v -0.111132 0.133502 -0.188868
v -0.137870 0.095958 -0.097312
v -0.151690 0.058413 -0.148310
v -0.202688 0.095958 -0.162130
v -0.188868 0.133502 -0.111132
v -0.129721 0.095958 -0.170279
v -0.170279 0.095958 -0.129721
v -0.180408 0.068439 0.167100
v -0.132900 0.068439 0.119592
v -0.207658 0.123476 0.139851
v -0.160150 0.123476 0.092342
v -0.119592 0.068439 0.132900
v -0.167100 0.068439 0.180408
v -0.092342 0.123476 0.160150
v -0.139850 0.123476 0.207658
v -0.202688 0.095958 0.162130
v -0.151690 0.058413 0.148310
v -0.137870 0.095958 0.097312
v -0.188868 0.133502 0.111132
v -0.097312 0.095958 0.137870
v -0.148310 0.058413 0.151690
v -0.162130 0.095958 0.202688
v -0.111132 0.133502 0.188868
v -0.170279 0.095958 0.129721
v -0.129721 0.095958 0.170279
vn 0.5792 0.5736 -0.5792
vn -0.5792 0.5736 0.5792
vn -0.5792 0.5736 -0.5792
vn 0.5792 0.5736 0.5792
vt 0.000000 0.000000
vt 1.000000 0.000000
vt 0.000000 1.000000
vt 1.000000 1.000000
vt 0.000000 0.000000
vt 1.000000 0.000000
vt 0.000000 1.000000
vt 1.000000 1.000000
vt 0.000000 0.500000
vt 0.500000 0.000000
vt 1.000000 0.500000
vt 0.500000 1.000000
vt 0.000000 0.500000
vt 0.500000 0.000000
vt 1.000000 0.500000
vt 0.500000 1.000000
vt 0.500000 0.500000
vt 0.500000 0.500000
vt 0.000000 0.000000
vt 1.000000 0.000000
vt 0.000000 1.000000
vt 1.000000 1.000000
vt 0.000000 0.000000
vt 1.000000 0.000000
vt 0.000000 1.000000
vt 1.000000 1.000000
vt 0.000000 0.500000
vt 0.500000 0.000000
vt 1.000000 0.500000
vt 0.500000 1.000000
vt 0.000000 0.500000
vt 0.500000 0.000000
vt 1.000000 0.500000
vt 0.500000 1.000000
vt 0.500000 0.500000
vt 0.500000 0.500000
vt 0.000000 0.000000
vt 1.000000 0.000000
vt 0.000000 1.000000
vt 1.000000 1.000000
vt 0.000000 0.000000
vt 1.000000 0.000000
vt 0.000000 1.000000
vt 1.000000 1.000000
vt 0.000000 0.500000
vt 0.500000 0.000000
vt 1.000000 0.500000
vt 0.500000 1.000000
vt 0.000000 0.500000
vt 0.500000 0.000000
vt 1.000000 0.500000
vt 0.500000 1.000000
vt 0.500000 0.500000
vt 0.500000 0.500000
vt 0.000000 0.000000
vt 1.000000 0.000000
vt 0.000000 1.000000
vt 1.000000 1.000000
vt 0.000000 0.000000
vt 1.000000 0.000000
vt 0.000000 1.000000
vt 1.000000 1.000000
vt 0.000000 0.500000
vt 0.500000 0.000000
vt 1.000000 0.500000
vt 0.500000 1.000000
vt 0.000000 0.500000
vt 0.500000 0.000000
vt 1.000000 0.500000
vt 0.500000 1.000000
vt 0.500000 0.500000
vt 0.500000 0.500000
s 0
usemtl Leaf
f 1/1/1 10/10/1 17/17/1 9/9/1
f 10/10/1 2/2/1 11/11/1 17/17/1
f 17/17/1 11/11/1 4/4/1 12/12/1
f 9/9/1 17/17/1 12/12/1 3/3/1
f 5/5/2 14/14/2 18/18/2 13/13/2
f 14/14/2 6/6/2 15/15/2 18/18/2
f 18/18/2 15/15/2 8/8/2 16/16/2
f 13/13/2 18/18/2 16/16/2 7/7/2
f 19/19/3 28/28/3 35/35/3 27/27/3
f 28/28/3 20/20/3 29/29/3 35/35/3
f 35/35/3 29/29/3 22/22/3 30/30/3
f 27/27/3 35/35/3 30/30/3 21/21/3
f 23/23/4 32/32/4 36/36/4 31/31/4
f 32/32/4 24/24/4 33/33/4 36/36/4
f 36/36/4 33/33/4 26/26/4 34/34/4
f 31/31/4 36/36/4 34/34/4 25/25/4
f 37/37/2 46/46/2 53/53/2 45/45/2
f 46/46/2 38/38/2 47/47/2 53/53/2
f 53/53/2 47/47/2 40/40/2 48/48/2
f 45/45/2 53/53/2 48/48/2 39/39/2
f 41/41/1 50/50/1 54/54/1 49/49/1
f 50/50/1 42/42/1 51/51/1 54/54/1
f 54/54/1 51/51/1 44/44/1 52/52/1
f 49/49/1 54/54/1 52/52/1 43/43/1
f 55/55/4 64/64/4 71/71/4 63/63/4
f 64/64/4 56/56/4 65/65/4 71/71/4
f 71/71/4 65/65/4 58/58/4 66/66/4
f 63/63/4 71/71/4 66/66/4 57/57/4
f 59/59/3 68/68/3 72/72/3 67/67/3
f 68/68/3 60/60/3 69/69/3 72/72/3
f 72/72/3 69/69/3 62/62/3 70/70/3
f 67/67/3 72/72/3 70/70/3 61/61/3
